# xmcd CD database file
#
# Track frame offsets:
#	151
#	21428
#	38632
#	59584
#	81199
#	95815
#	116164
#	129835
#	146753
#	161589
#
# Disc length: 2388 seconds
#
# Revision: 3
# Processed by: cddbd v1.5.2PL0 Copyright (c) Steve Scherf et al.
# Submitted via: CDex 1.70beta2
#
DISCID=8b09520a
DTITLE=Various Artist - Super Éxitos De Salsa CD2
DYEAR=2007
DGENRE=Salsa
TTITLE0=Pá Que Me Llamas  - Luis Miguel De Amargue
TTITLE1=Avisale A Mi Gente - Wili
TTITLE2=Moliendo Cafe - Juan Manuel
TTITLE3=Para Amarte Así - Wili
TTITLE4=No Te Vayas - Wili
TTITLE5=Por Un Momento - Wili
TTITLE6=Ven Pá Que Pruebes - Wili
TTITLE7=Esperanza Al Final Del Camino - Wili
TTITLE8=Ahora Que Hago Contigo - Wili
TTITLE9=Mi Rumba - Wili
EXTD=YEAR: 2007
EXTT0=
EXTT1=
EXTT2=
EXTT3=
EXTT4=
EXTT5=
EXTT6=
EXTT7=
EXTT8=
EXTT9=
PLAYORDER=
